<svg width="111" height="22" viewBox="0 0 111 22" fill="none" xmlns="http://www.w3.org/2000/svg">
<path d="M12.0494 21.298V16.5539C11.6998 16.6199 11.339 16.6545 10.9702 16.6545C7.78253 16.6545 5.19847 14.0734 5.19847 10.8894C5.19847 7.7054 7.78253 5.12426 10.9702 5.12426C14.0887 5.12426 16.6295 7.59467 16.7382 10.6831H16.7452V21.3476H21.4403V10.8894C21.4403 4.62583 16.7527 0.431153 10.9702 0.431153C5.18765 0.431153 0.5 5.11346 0.5 10.8894C0.5 16.6653 5.18765 21.3476 10.9702 21.3476C11.3323 21.3476 11.6928 21.3326 12.0494 21.298Z" fill="white"/>
<path d="M37.1323 16.3653C38.2165 16.1499 39.2125 15.6181 39.9942 14.8373L43.4453 18.2845C42.2875 19.441 40.8787 20.3058 39.3357 20.8166C38.9273 20.9518 38.5095 21.0622 38.0844 21.1467C36.0534 21.5502 33.9482 21.3431 32.035 20.5515C30.1219 19.76 28.4866 18.4195 27.3361 16.6997C26.1857 14.9798 25.5716 12.9578 25.5716 10.8894C25.5716 8.82095 26.1857 6.79895 27.3361 5.0791C28.4866 3.35926 30.1218 2.0188 32.035 1.22724C33.9482 0.43568 36.0534 0.228583 38.0844 0.632102C38.5095 0.716554 38.9273 0.826959 39.3357 0.962179C40.8787 1.47299 42.2875 2.33779 43.4453 3.49429L39.9942 6.94146C39.2125 6.16063 38.2165 5.62889 37.1323 5.41346C36.048 5.19803 34.9241 5.30859 33.9027 5.73117C32.8814 6.15375 32.0084 6.86937 31.3942 7.78752C30.78 8.70567 30.4522 9.78512 30.4522 10.8894C30.4522 11.9936 30.78 13.0731 31.3942 13.9912C32.0084 14.9094 32.8814 15.625 33.9027 16.0476C34.9241 16.4702 36.048 16.5807 37.1323 16.3653Z" fill="white"/>
<path fill-rule="evenodd" clip-rule="evenodd" d="M67.5689 10.8894C67.5689 16.6653 62.8812 21.3476 57.0987 21.3476C51.3162 21.3476 46.6286 16.6653 46.6286 10.8894C46.6286 5.11346 51.3162 0.431153 57.0987 0.431153C62.8812 0.431153 67.5689 5.11346 67.5689 10.8894ZM62.6883 10.8894C62.6883 7.80586 60.1858 5.30617 57.0987 5.30617C54.0117 5.30617 51.5092 7.80586 51.5092 10.8894C51.5092 13.9729 54.0117 16.4726 57.0987 16.4726C60.1858 16.4726 62.6883 13.9729 62.6883 10.8894Z" fill="white"/>
<path d="M89.5597 10.8894C89.5597 9.51599 89.8305 8.15604 90.3567 6.88719C90.4539 6.65279 90.5595 6.42234 90.6731 6.19627C91.1747 5.19857 91.8337 4.28603 92.6263 3.49429C93.5986 2.52316 94.7528 1.75281 96.0231 1.22724C97.2934 0.701659 98.6549 0.431153 100.03 0.431153C101.405 0.431153 102.766 0.701659 104.037 1.22724C105.307 1.75281 106.461 2.52316 107.433 3.49429C108.226 4.28603 108.885 5.19858 109.387 6.19627C109.5 6.42235 109.606 6.65279 109.703 6.88719C110.229 8.15604 110.5 9.51599 110.5 10.8894V21.3476H105.629V10.8894H105.619C105.619 10.1562 105.475 9.43017 105.194 8.75278C104.913 8.07539 104.501 7.4599 103.982 6.94146C103.463 6.42301 102.847 6.01175 102.169 5.73117C101.491 5.45059 100.764 5.30617 100.03 5.30617C99.2958 5.30617 98.569 5.45059 97.8908 5.73117C97.2127 6.01175 96.5965 6.42301 96.0774 6.94146C95.5584 7.4599 95.1467 8.07539 94.8658 8.75278C94.5849 9.43017 94.4403 10.1562 94.4403 10.8894H94.4307V21.3476H89.5597V10.8894Z" fill="white"/>
<path d="M71.4546 11.0384C71.4546 5.18016 76.209 0.431153 82.0739 0.431153C84.4069 0.431153 86.5642 1.18263 88.3164 2.45648L85.6286 6.62684C84.6563 5.84415 83.4199 5.37562 82.0739 5.37562C78.9429 5.37562 76.4047 7.91092 76.4047 11.0384L76.4086 11.0383V21.3476H71.4546V11.0384Z" fill="white"/>
</svg>
