<svg width="110" height="21" viewBox="0 0 110 21" fill="none" xmlns="http://www.w3.org/2000/svg">
<path d="M11.5494 20.9086V16.1645C11.1998 16.2305 10.839 16.2651 10.4702 16.2651C7.28253 16.2651 4.69847 13.684 4.69847 10.5C4.69847 7.31599 7.28253 4.73486 10.4702 4.73486C13.5887 4.73486 16.1295 7.20527 16.2382 10.2937H16.2452V20.9582H20.9403V10.5C20.9403 4.23643 16.2527 0.0417486 10.4702 0.0417486C4.68765 0.0417486 0 4.72405 0 10.5C0 16.2759 4.68765 20.9582 10.4702 20.9582C10.8323 20.9582 11.1928 20.9432 11.5494 20.9086Z" fill="#454545"/>
<path d="M36.6323 15.9759C37.7165 15.7605 38.7125 15.2287 39.4942 14.4479L42.9453 17.8951C41.7875 19.0516 40.3787 19.9164 38.8357 20.4272C38.4273 20.5624 38.0095 20.6728 37.5844 20.7573C35.5534 21.1608 33.4482 20.9537 31.535 20.1621C29.6219 19.3706 27.9866 18.0301 26.8361 16.3103C25.6857 14.5904 25.0716 12.5684 25.0716 10.5C25.0716 8.43154 25.6857 6.40955 26.8361 4.6897C27.9866 2.96986 29.6218 1.6294 31.535 0.837832C33.4482 0.0462758 35.5534 -0.160821 37.5844 0.242698C38.0095 0.32715 38.4273 0.437555 38.8357 0.572775C40.3787 1.08359 41.7875 1.94839 42.9453 3.10489L39.4942 6.55205C38.7125 5.77123 37.7165 5.23949 36.6323 5.02405C35.548 4.80863 34.4241 4.91919 33.4027 5.34177C32.3814 5.76435 31.5084 6.47996 30.8942 7.39811C30.28 8.31627 29.9522 9.39572 29.9522 10.5C29.9522 11.6042 30.28 12.6837 30.8942 13.6018C31.5084 14.52 32.3814 15.2356 33.4027 15.6582C34.4241 16.0808 35.548 16.1913 36.6323 15.9759Z" fill="#454545"/>
<path fill-rule="evenodd" clip-rule="evenodd" d="M67.0689 10.5C67.0689 16.2759 62.3812 20.9582 56.5987 20.9582C50.8162 20.9582 46.1286 16.2759 46.1286 10.5C46.1286 4.72405 50.8162 0.0417486 56.5987 0.0417486C62.3812 0.0417486 67.0689 4.72405 67.0689 10.5ZM62.1883 10.5C62.1883 7.41646 59.6858 4.91677 56.5987 4.91677C53.5117 4.91677 51.0092 7.41646 51.0092 10.5C51.0092 13.5835 53.5117 16.0832 56.5987 16.0832C59.6858 16.0832 62.1883 13.5835 62.1883 10.5Z" fill="#454545"/>
<path d="M89.0597 10.5C89.0597 9.12658 89.3305 7.76664 89.8567 6.49778C89.9539 6.26338 90.0595 6.03293 90.1731 5.80686C90.6747 4.80917 91.3337 3.89662 92.1263 3.10489C93.0986 2.13375 94.2528 1.36341 95.5231 0.837832C96.7934 0.312255 98.1549 0.0417486 99.5298 0.0417486C100.905 0.0417486 102.266 0.312255 103.537 0.837832C104.807 1.36341 105.961 2.13375 106.933 3.10489C107.726 3.89662 108.385 4.80918 108.887 5.80686C109 6.03294 109.106 6.26338 109.203 6.49778C109.729 7.76664 110 9.12658 110 10.5V20.9582H105.129V10.5H105.119C105.119 9.76677 104.975 9.04076 104.694 8.36337C104.413 7.68599 104.001 7.0705 103.482 6.55205C102.963 6.0336 102.347 5.62234 101.669 5.34177C100.991 5.06118 100.264 4.91677 99.5298 4.91677C98.7958 4.91677 98.069 5.06118 97.3908 5.34177C96.7127 5.62234 96.0965 6.0336 95.5774 6.55205C95.0584 7.0705 94.6467 7.68599 94.3658 8.36337C94.0849 9.04076 93.9403 9.76677 93.9403 10.5H93.9307V20.9582H89.0597V10.5Z" fill="#454545"/>
<path d="M70.9546 10.649C70.9546 4.79076 75.709 0.0417486 81.5739 0.0417486C83.9069 0.0417486 86.0642 0.793228 87.8164 2.06707L85.1286 6.23744C84.1563 5.45475 82.9199 4.98622 81.5739 4.98621C78.4429 4.98621 75.9047 7.52151 75.9047 10.649L75.9086 10.6489V20.9582H70.9546V10.649Z" fill="#454545"/>
</svg>
